<svg xmlns="http://www.w3.org/2000/svg" viewBox="0 0 64 64">
  <defs>
    <linearGradient id="g" x1="0" y1="0" x2="1" y2="1">
      <stop offset="0" stop-color="#d9ccfb"/>
      <stop offset="1" stop-color="#8f7bd6"/>
    </linearGradient>
  </defs>
  <rect width="64" height="64" rx="18" fill="#f4efff"/>
  <path d="M12 35c4-13 17-20 30-16 7 2 12 6 14 11 2 4 1 8-2 11-6 6-18 8-29 4-6-2-10-5-13-10Z" fill="url(#g)"/>
  <path d="M47 22c4-6 9-8 15-5-2 5-6 8-11 10" fill="#bca9ed"/>
  <path d="M52 26c6-1 10 1 12 6-5 3-10 2-14-2" fill="#d9ccfb"/>
  <circle cx="41" cy="31" r="1.8" fill="#433b63"/>
  <path d="M13 34c-6-1-10 1-13 6 6 3 11 2 15-1" fill="#c8b7f3"/>
</svg>
